<?xml version="1.0" encoding="UTF-8" standalone="no"?>
<svg
   id="svg"
   version="1.1"
   width="248.694"
   height="208.32201"
   viewBox="0 0 248.694 208.322"
   sodipodi:docname="gsb.svg"
   inkscape:version="1.3 (0e150ed6c4, 2023-07-21)"
   xmlns:inkscape="http://www.inkscape.org/namespaces/inkscape"
   xmlns:sodipodi="http://sodipodi.sourceforge.net/DTD/sodipodi-0.dtd"
   xmlns="http://www.w3.org/2000/svg"
   xmlns:svg="http://www.w3.org/2000/svg">
  <defs
     id="defs1">
    <clipPath
       clipPathUnits="userSpaceOnUse"
       id="clipPath1">
      <rect
         style="opacity:0.411952;fill:#000000"
         id="rect2"
         width="267.0925"
         height="220.86143"
         x="68.302795"
         y="84.443146" />
    </clipPath>
  </defs>
  <sodipodi:namedview
     id="namedview1"
     pagecolor="#ffffff"
     bordercolor="#000000"
     borderopacity="0.25"
     inkscape:showpageshadow="2"
     inkscape:pageopacity="0.0"
     inkscape:pagecheckerboard="0"
     inkscape:deskcolor="#d1d1d1"
     inkscape:zoom="1.7"
     inkscape:cx="117.35294"
     inkscape:cy="103.23529"
     inkscape:window-width="1920"
     inkscape:window-height="1008"
     inkscape:window-x="256"
     inkscape:window-y="1440"
     inkscape:window-maximized="1"
     inkscape:current-layer="svg" />
  <g
     id="svgg"
     clip-path="url(#clipPath1)"
     transform="translate(-77.654841,-90.23648)">
    <path
       id="path0"
       d="m 266.347,92.675 c -11.746,1.81 -20.973,11.328 -20.973,21.632 0,4.546 0.98,7.904 4.834,16.566 5.842,13.129 6.406,17.978 3.812,32.801 -2.484,14.191 -3.033,20.246 -2.359,26.015 1.895,16.228 15.45,27.1 30.303,24.305 19.896,-3.745 36.112,-21.838 36.131,-40.313 0.01,-9.847 -3.842,-16.172 -14.894,-24.454 -9.978,-7.477 -10.764,-9.688 -10.017,-28.185 0.177,-4.38 0.154,-6.708 -0.085,-8.499 C 291.339,99.334 279.62,90.63 266.347,92.675 m 8.464,3.69 c 5.426,1.149 10.54,5.231 13.057,10.42 1.979,4.079 2.231,6.953 1.806,20.562 -0.425,13.597 1.41,17.374 12.314,25.346 4.17,3.05 8.797,7.846 10.21,10.585 8.843,17.14 -6.852,41.859 -29.95,47.167 -13.632,3.133 -26.016,-7.073 -27.261,-22.467 -0.422,-5.215 0.008,-9.513 2.307,-23.071 2.77,-16.333 2.246,-21.69 -3.343,-34.132 -4.252,-9.468 -5.071,-12.063 -5.106,-16.176 -0.097,-11.605 13.195,-20.94 25.966,-18.234 m -138.827,4.114 c -11.05,2.49 -19.094,9.396 -37.011,31.777 -19.803,24.736 -21.622,42.795 -6.013,59.726 8.946,9.704 20.247,15.347 34.99,17.472 23.44,3.379 36.29,-4.387 39.846,-24.081 1.421,-7.87 1.904,-8.756 6.701,-12.289 7.581,-5.586 9.646,-9.506 7.83,-14.871 -2.465,-7.283 -10.293,-10.294 -26.741,-10.284 -12.893,0.008 -18.589,1.998 -20.327,7.099 -1.001,2.938 -0.308,4.784 3.196,8.512 2.897,3.084 3.124,3.92 1.678,6.2 -3.706,5.843 -12.522,7.076 -20.759,2.902 -7.628,-3.865 -7.519,-8.911 0.402,-18.564 8.62,-10.504 15.286,-14.492 28.641,-17.135 9.94,-1.966 13.301,-3.37 17.046,-7.119 5.491,-5.497 6.742,-12.329 3.2,-17.477 -5.474,-7.955 -22.541,-14.154 -32.679,-11.868 m 64.701,2.085 c -17.575,1.976 -26.28,11.194 -24.718,26.176 1.257,12.058 6.863,18.507 23.325,26.832 10.474,5.297 13.681,7.478 16.918,11.508 4.884,6.081 5.935,12.143 3.104,17.908 -2.612,5.319 -6.895,6.94 -13.557,5.13 -1.508,-0.409 -3.796,-1.027 -5.086,-1.372 -14.86,-3.979 -25.93,1.607 -25.841,13.038 0.09,11.496 8.934,17.836 24.896,17.848 25.201,0.018 44.507,-23.962 40.858,-50.749 -2.01,-14.758 -8.585,-21.663 -27.933,-29.336 -10.144,-4.023 -14.127,-6.924 -14.627,-10.651 -0.784,-5.849 7.011,-7.117 16.907,-2.75 6.969,3.076 11.079,3.671 14.952,2.166 10.439,-4.055 10.684,-16.338 0.431,-21.628 -6.612,-3.411 -19.72,-5.234 -29.629,-4.12 m -56.614,1.097 c 11.89,1.451 23.167,8.651 23.167,14.791 0,3.043 -1.977,6.955 -4.835,9.567 -2.919,2.667 -6.925,4.113 -16.279,5.876 -13.293,2.505 -22.826,8.973 -31.896,21.642 -7.616,10.638 -4.024,18.898 9.762,22.446 9.698,2.495 20.363,-3.066 20.346,-10.608 -0.006,-2.437 -0.406,-3.199 -3.169,-6.036 -6.137,-6.302 -1.952,-9.6 12.594,-9.924 17.106,-0.382 25.639,2.956 25.629,10.025 -0.004,2.96 -1.263,4.529 -7.217,9 -5.4,4.053 -6.212,5.518 -7.686,13.847 -3.119,17.629 -13.857,24.534 -34.23,22.011 -15.365,-1.902 -27.089,-7.769 -35.882,-17.957 -9.877,-11.444 -10.957,-22.595 -3.625,-37.416 3.749,-7.579 7.237,-12.294 21.799,-29.468 11.649,-13.74 21.09,-19.069 31.522,-17.796 m 72.539,2.726 c 11.734,1.684 17.797,5.48 17.797,11.142 0,6.163 -7.492,9.859 -14.256,7.032 -1.131,-0.472 -3.449,-1.437 -5.151,-2.145 -11.243,-4.67 -20.407,-2.066 -20.431,5.806 -0.018,5.717 4.143,9.413 16.015,14.228 18.317,7.429 23.66,12.385 26.159,24.268 5.401,25.671 -14.074,50.603 -38.662,49.496 -13.394,-0.603 -20.401,-5.997 -19.808,-15.248 0.593,-9.254 9.729,-12.267 24.469,-8.068 11.625,3.311 18.417,0.098 20.981,-9.926 2.983,-11.664 -3.882,-20.975 -22.274,-30.215 -14.908,-7.489 -19.961,-12.63 -21.748,-22.126 -3.413,-18.147 11.435,-27.9 36.909,-24.244 m 48.786,0.41 c -8.599,2.402 -9.944,14.089 -2.682,23.307 9.356,11.876 24.001,4.014 19.961,-10.715 -2.314,-8.432 -10.586,-14.46 -17.279,-12.592 m 6.568,4.235 c 8.67,4.385 10.808,17.887 3.331,21.039 -5.27,2.222 -12.394,-4.487 -13.746,-12.946 -1.119,-7.008 4.273,-11.199 10.415,-8.093 m 8.913,47.67 c -8.271,2.377 -12.586,10.702 -12.597,24.3 -0.008,11.464 4.406,16.676 13.506,15.949 12.098,-0.968 21.182,-11.51 21.157,-24.552 -0.021,-10.67 -11.397,-18.763 -22.066,-15.697 m 7.571,3.172 c 7.408,1.571 11.774,7.429 10.928,14.662 -1.325,11.316 -9.53,19.344 -19.303,18.885 -6.186,-0.291 -8.395,-3.551 -8.414,-12.419 -0.032,-15.186 6.434,-23.323 16.789,-21.128 M 119.48,223.717 c -10.515,1.672 -16.66,10.738 -11.065,16.323 1.86,1.856 3.315,2.292 8.557,2.563 4.529,0.235 5.794,0.612 7.936,2.368 4.686,3.839 2.768,12.47 -3.735,16.813 -4.008,2.676 -5.663,2.229 -7.96,-2.154 -4.411,-8.413 -16.309,-9.938 -24.591,-3.151 -11.328,9.284 -4.989,24.42 11.648,27.81 4.836,0.986 8.563,0.714 16.614,-1.212 10.35,-2.476 13.082,-2.045 20.928,3.303 10.127,6.903 16.814,5.152 16.814,-4.402 0,-5.722 -7.808,-10.817 -17.38,-11.341 -5.208,-0.284 -4.959,-1.949 1.355,-9.059 11.913,-13.416 9.707,-31.439 -4.451,-36.362 -3.819,-1.329 -11.077,-2.07 -14.67,-1.499 m 163.538,0.699 c -7.571,1.66 -12.042,5.811 -16.817,15.611 -4.755,9.761 -6.621,19.73 -5.465,29.206 1.135,9.31 5.986,11.688 15.206,7.452 1.915,-0.879 3.114,-1.264 3.976,-1.275 l 1.233,-0.016 -0.092,5.757 c -0.103,6.418 0.157,8.754 1.246,11.18 3.407,7.598 15.744,4.81 20.734,-4.686 2.625,-4.995 2.442,-8.36 -0.824,-15.208 -2.717,-5.695 -2.361,-6.839 2.399,-7.71 14.168,-2.592 21.08,-12.393 13.466,-19.095 -4.397,-3.871 -9.161,-3.08 -16.398,2.723 l -3.047,2.443 -0.34,-1.547 c -0.75,-3.415 -2.559,-5.469 -5.375,-6.099 -4.312,-0.965 -8.879,2.599 -8.888,6.937 -0.01,4.848 -4.644,6.305 -5.362,1.685 -0.577,-3.711 1.81,-6.865 8.444,-11.155 5.546,-3.587 7.203,-5.849 7.19,-9.809 -0.018,-5.26 -4.605,-7.859 -11.286,-6.394 M 127.843,227.3 c 16.858,2.526 20.359,18.82 7.123,33.152 -4.363,4.725 -5.772,8.644 -4.147,11.536 0.823,1.465 1.765,1.807 5.439,1.98 7.593,0.358 15.079,4.362 15.079,8.066 0,6.225 -3.694,6.726 -11.411,1.548 -8.633,-5.792 -12.829,-6.537 -22.997,-4.08 -6.727,1.625 -8.079,1.848 -11.24,1.858 -14.802,0.044 -24.4,-12.194 -16.288,-20.771 6.624,-7.004 16.601,-6.593 20.792,0.858 1.769,3.144 2.374,3.845 4.02,4.65 5.67,2.774 14.517,-3.778 16.393,-12.142 1.995,-8.893 -3.717,-14.871 -14.225,-14.887 -6.656,-0.009 -8.789,-3.746 -4.54,-7.952 3.559,-3.523 9.115,-4.848 16.002,-3.816 m 161.392,0.733 c 1.13,0.567 1.64,1.462 1.645,2.887 0.01,2.451 -1.268,3.912 -6.276,7.175 -7.008,4.567 -9.347,7.855 -9.347,13.144 0,4.565 3.461,7.526 7.585,6.49 2.796,-0.703 4.003,-2.408 4.498,-6.352 0.408,-3.255 1.401,-4.582 3.615,-4.832 2.708,-0.305 3.704,1.07 4.464,6.161 0.513,3.436 2.434,3.086 8.351,-1.518 6.58,-5.122 9.72,-5.742 12.481,-2.468 4.078,4.837 -1.366,10.375 -12.447,12.664 -7.189,1.484 -8.488,4.976 -4.7,12.633 3.73,7.543 2.38,13.143 -4.224,17.527 -6.765,4.491 -10.52,1.501 -10.298,-8.199 0.206,-8.996 0.137,-9.484 -1.534,-10.798 -1.694,-1.333 -3.992,-1.058 -8.73,1.044 -7.498,3.326 -9.52,2.026 -10.344,-6.653 -1.33,-14.008 6.584,-33.244 15.463,-37.584 3.652,-1.786 7.766,-2.34 9.798,-1.321 m -113.893,1.204 c -12.993,1.666 -23.657,15.52 -22.825,29.651 1.231,20.922 25.156,32.79 45.27,22.456 12.095,-6.215 15.35,-19.992 8.082,-34.204 -5.262,-10.29 -18.954,-19.095 -28.271,-18.181 -0.194,0.019 -1.209,0.144 -2.256,0.278 m 47.237,2.295 c -8.968,1.786 -14.263,8.573 -11.345,14.539 2.149,4.392 7.073,5.565 15.489,3.691 6.396,-1.425 9.466,0.226 9.466,5.09 0,3.205 -2.545,5.86 -9.089,9.482 -13.056,7.225 -17.716,14.403 -14.107,21.733 3.689,7.495 14.745,8.713 30.873,3.403 10.238,-3.371 15.922,-7.887 15.709,-12.482 -0.224,-4.849 -4.227,-6.853 -11.368,-5.693 -3.572,0.58 -4.915,0.352 -5.922,-1.008 -0.752,-1.017 -0.296,-1.861 3.265,-6.043 10.402,-12.214 7.773,-26.979 -5.602,-31.465 -4.511,-1.513 -12.982,-2.121 -17.369,-1.247 m -38.408,1.9 c 21.452,6.886 29.893,34.298 13.551,44.006 -14.447,8.583 -32.955,3.715 -39.657,-10.43 -8.287,-17.492 8.59,-39.199 26.106,-33.576 m 48.05,1.261 c 11.062,1.361 16.497,6.433 16.111,15.036 -0.209,4.663 -1.639,7.974 -5.144,11.909 -4.558,5.119 -5.487,7.375 -4.132,10.031 1.237,2.426 3.469,3.444 7.048,3.216 1.332,-0.085 3.594,-0.229 5.027,-0.32 7.778,-0.495 6.555,4.894 -2.056,9.064 -16.816,8.142 -33.642,7.216 -33.656,-1.852 -0.008,-4.843 3.527,-8.814 12.201,-13.706 9.236,-5.209 11.731,-7.868 11.947,-12.731 0.347,-7.79 -4.438,-10.836 -13.933,-8.866 -7.435,1.542 -11.208,0.477 -11.716,-3.309 -0.745,-5.554 8.235,-9.711 18.303,-8.472 m -57.084,10.792 c -11.493,3.317 -13.051,18.886 -2.412,24.105 14.441,7.083 29.474,-3.902 21.71,-15.866 -3.942,-6.075 -13.159,-10.01 -19.298,-8.239 m 7.955,3.892 c 11.901,3.957 13.398,16.033 2.311,18.647 -10.086,2.379 -19.337,-5.693 -15.646,-13.651 2.392,-5.158 7.309,-7 13.335,-4.996"
       stroke="none"
       fill="#050505"
       fill-rule="evenodd" />
    <path
       id="path1"
       d="m 267.323,96.24 c -7.192,0.99 -13.649,5.364 -16.616,11.257 -2.854,5.666 -2.373,10.235 2.133,20.262 7,15.579 7.548,20.019 4.609,37.375 -2.527,14.927 -2.969,21.41 -1.818,26.641 2.842,12.909 13.658,20.762 25.69,18.651 17.678,-3.1 33.141,-20.167 33.141,-36.579 0,-8.849 -3.1,-13.865 -13.348,-21.599 -6.732,-5.08 -8.934,-7.777 -10.821,-13.249 -1.005,-2.914 -1.067,-4.51 -0.768,-19.602 0.109,-5.48 0.058,-6.593 -0.386,-8.499 -2.29,-9.826 -11.579,-16.068 -21.816,-14.658 m -130.654,7.831 c -9.965,2.226 -17.329,8.663 -34.78,30.399 -18.624,23.199 -20.532,39.841 -6.299,54.96 10.257,10.896 22.771,16.21 40.394,17.154 15.965,0.855 25.685,-6.651 28.231,-21.8 1.492,-8.878 2.369,-10.401 8.725,-15.147 6.829,-5.1 8.09,-8.745 4.455,-12.874 -6.11,-6.942 -36.43,-7.416 -38.678,-0.605 -0.49,1.486 -0.145,2.192 2.317,4.752 3.753,3.901 4.449,6.333 2.786,9.732 -3.105,6.348 -11.741,9.583 -19.935,7.469 -13.96,-3.601 -17.595,-12.265 -9.623,-22.936 9.863,-13.202 18.365,-18.83 32.721,-21.659 13.986,-2.755 19.545,-6.789 19.939,-14.466 0.43,-8.379 -18.295,-17.651 -30.253,-14.979 m 66.073,1.923 c -16.671,1.744 -23.523,7.893 -23.094,20.726 0.395,11.847 5.035,17.335 21.86,25.859 12.432,6.298 17.485,10.471 20.911,17.27 5.127,10.173 0.068,22.919 -9.765,24.604 -2.323,0.398 -5.186,0.009 -9.672,-1.313 -14.673,-4.323 -24.004,-1.337 -24.445,7.822 -0.315,6.536 2.915,11.19 9.21,13.272 26.39,8.725 52.423,-14.092 49.412,-43.308 -1.519,-14.748 -7.148,-20.65 -27.202,-28.519 -10.765,-4.225 -15.16,-8.118 -15.522,-13.752 -0.571,-8.906 9.32,-11.341 22.672,-5.583 5.001,2.157 5.591,2.329 7.979,2.33 8.289,0.001 12.178,-8.513 6.25,-13.685 -4.415,-3.853 -18.853,-6.742 -28.594,-5.723 m 68.716,0.926 c 14.351,4.492 16.501,26.792 2.81,29.148 -8.309,1.429 -18.03,-11.063 -16.329,-20.984 1.111,-6.478 7.186,-10.147 13.519,-8.164 m 17.864,51.431 c 12.65,2.784 17.378,15.056 10.871,28.215 -6.443,13.031 -24.277,17.126 -30.244,6.944 -2.525,-4.308 -2.662,-15.176 -0.288,-22.751 3.057,-9.749 10.474,-14.431 19.661,-12.408 m -168.598,68.935 c -6.887,0.725 -12.204,5.556 -10.37,9.422 0.72,1.518 1.683,1.861 5.998,2.135 6.464,0.41 8.819,1.213 11.541,3.935 5.907,5.907 3.593,16.477 -4.859,22.195 -5.29,3.578 -9.798,2.468 -12.826,-3.158 -3.944,-7.328 -13.58,-8.092 -20.298,-1.611 -10.148,9.792 4.907,24.274 21.262,20.451 9.323,-2.179 10.579,-2.416 13.571,-2.56 5.531,-0.266 8.447,0.723 14.722,4.993 8.156,5.551 11.597,5.221 11.597,-1.112 0,-3.641 -7.124,-7.372 -14.866,-7.786 -7.346,-0.392 -8.484,-5.578 -2.688,-12.246 5.079,-5.843 7.085,-9.074 8.502,-13.692 2.819,-9.189 -2.004,-18.023 -10.993,-20.135 -1.933,-0.455 -7.571,-1.198 -8.154,-1.075 -0.097,0.02 -1.06,0.13 -2.139,0.244 m 163.599,0.55 c -6.656,1.391 -10.35,4.75 -14.618,13.288 -4.082,8.169 -5.932,16.163 -5.582,24.126 0.421,9.571 2.434,11.571 8.804,8.746 10.105,-4.481 12.086,-3.388 11.797,6.512 -0.301,10.363 0.714,12.74 5.338,12.494 2.779,-0.147 4.478,-1.036 7.128,-3.729 4.769,-4.847 5.132,-8.351 1.607,-15.513 -3.568,-7.25 -2.012,-11.457 4.617,-12.485 4.911,-0.762 12.01,-4.281 13.5,-6.691 1.068,-1.729 0.541,-4.589 -1.123,-6.09 -2.817,-2.541 -5.632,-2.044 -10.719,1.895 -1.209,0.936 -2.891,2.24 -3.738,2.898 -3.838,2.981 -5.641,2.469 -6.328,-1.8 -0.584,-3.625 -1.424,-4.743 -3.569,-4.743 -2.243,0 -3.822,1.697 -3.837,4.124 -0.056,9.115 -11.905,9.841 -12.556,0.77 -0.36,-5.015 2.321,-8.994 8.986,-13.336 4.21,-2.743 5.385,-3.725 6.082,-5.084 1.936,-3.777 -0.89,-6.406 -5.789,-5.382 m -110.677,5.453 c -17.156,4.637 -23.29,27.542 -10.795,40.306 11.554,11.803 34.918,9.912 41.38,-3.349 8.241,-16.911 -12.414,-41.869 -30.585,-36.957 m 50.754,1.566 c -5.766,0.888 -10.283,4.331 -10.28,7.837 0.004,3.83 4.364,5.244 11.24,3.644 8.792,-2.046 14.008,0.741 14.47,7.731 0.354,5.355 -2.654,8.929 -11.729,13.934 -11.629,6.415 -15.541,13.123 -10.561,18.112 4.786,4.796 19.142,3.534 31.758,-2.792 9.07,-4.548 9.013,-10.132 -0.086,-8.494 -4.673,0.842 -7.178,0.395 -9.217,-1.645 -2.819,-2.818 -2.236,-5.478 2.367,-10.811 7.226,-8.37 7.942,-17.143 1.878,-23.009 -3.342,-3.232 -13.351,-5.506 -19.84,-4.507 m -40.85,10.803 c 8.179,2.527 14.167,9.837 13.107,15.999 -2.625,15.257 -30.167,12.988 -31.262,-2.575 -0.683,-9.716 8.407,-16.437 18.155,-13.424"
       stroke="none"
       fill="#fbfbfb"
       fill-rule="evenodd" />
    <path
       id="path2"
       d="m 277.176,110.298 c 0,0.047 0.401,0.448 0.891,0.891 l 0.891,0.806 -0.805,-0.892 c -0.751,-0.83 -0.977,-1.017 -0.977,-0.805 m -137.628,49.349 c 0,0.047 0.401,0.448 0.891,0.891 l 0.891,0.805 -0.806,-0.891 c -0.75,-0.83 -0.976,-1.017 -0.976,-0.805 m 158.19,3.016 c 0,0.047 0.401,0.448 0.891,0.891 l 0.891,0.805 -0.805,-0.891 c -0.751,-0.83 -0.977,-1.017 -0.977,-0.805 M 96.642,190.816 c 0.588,0.603 1.132,1.096 1.207,1.096 0.076,0 -0.344,-0.493 -0.933,-1.096 -0.589,-0.604 -1.133,-1.097 -1.208,-1.097 -0.076,0 0.345,0.493 0.934,1.097 m 206.29,8.156 -0.944,1.028 1.028,-0.945 c 0.957,-0.879 1.154,-1.111 0.945,-1.111 -0.046,0 -0.509,0.462 -1.029,1.028 m -41.383,4.815 c 0,0.047 0.401,0.448 0.891,0.891 l 0.891,0.805 -0.805,-0.891 c -0.751,-0.83 -0.977,-1.017 -0.977,-0.805"
       stroke="none"
       fill="#7c7c7c"
       fill-rule="evenodd" />
    <path
       id="path3"
       d="m 140.027,103.557 c 0.49,0.061 1.292,0.061 1.782,0 0.491,-0.061 0.09,-0.111 -0.891,-0.111 -0.98,0 -1.381,0.05 -0.891,0.111 m 66.073,2.195 c 0.641,0.058 1.69,0.058 2.33,0 0.641,-0.057 0.117,-0.104 -1.165,-0.104 -1.281,0 -1.806,0.047 -1.165,0.104 m 25.017,5.643 c 0,0.047 0.401,0.448 0.891,0.891 l 0.891,0.805 -0.805,-0.891 c -0.751,-0.83 -0.977,-1.017 -0.977,-0.805 m -112.969,3.684 -0.944,1.028 1.028,-0.945 c 0.957,-0.879 1.154,-1.111 0.944,-1.111 -0.045,0 -0.508,0.462 -1.028,1.028 m 171.729,2.673 c 0.002,1.055 0.051,1.454 0.111,0.885 0.059,-0.569 0.058,-1.433 -0.003,-1.919 -0.06,-0.487 -0.109,-0.022 -0.108,1.034 m -0.536,13.571 c 0,1.583 0.045,2.231 0.1,1.439 0.056,-0.791 0.056,-2.087 0,-2.879 -0.055,-0.791 -0.1,-0.143 -0.1,1.44 m -4.694,26.79 c 0.415,0.063 1.093,0.063 1.508,0 0.415,-0.063 0.075,-0.114 -0.754,-0.114 -0.829,0 -1.169,0.051 -0.754,0.114 m -47.142,16.801 c 0,0.83 0.051,1.169 0.114,0.754 0.063,-0.414 0.063,-1.093 0,-1.508 -0.063,-0.414 -0.114,-0.075 -0.114,0.754 m 17.259,10.007 c 0.003,0.603 0.059,0.818 0.125,0.477 0.065,-0.341 0.063,-0.835 -0.006,-1.097 -0.068,-0.262 -0.122,0.017 -0.119,0.62 m -91.514,54.49 -1.084,1.165 1.165,-1.084 c 1.084,-1.008 1.291,-1.247 1.084,-1.247 -0.045,0 -0.569,0.525 -1.165,1.166 m -20.33,3.495 c 0,0.829 0.051,1.169 0.114,0.754 0.063,-0.415 0.063,-1.093 0,-1.508 -0.063,-0.415 -0.114,-0.075 -0.114,0.754 m 96.771,11.789 c 0,0.679 0.053,0.956 0.119,0.617 0.065,-0.339 0.065,-0.895 0,-1.234 -0.066,-0.339 -0.119,-0.062 -0.119,0.617 m -139.965,1.016 c 0.339,0.065 0.894,0.065 1.234,0 0.339,-0.065 0.061,-0.119 -0.617,-0.119 -0.679,0 -0.956,0.054 -0.617,0.119 m 65.671,2.411 c 0.002,0.754 0.055,1.03 0.118,0.613 0.063,-0.417 0.062,-1.034 -0.003,-1.371 -0.065,-0.337 -0.117,0.004 -0.115,0.758 m 98.42,4.249 c 0,0.679 0.053,0.957 0.119,0.617 0.065,-0.339 0.065,-0.894 0,-1.233 -0.066,-0.34 -0.119,-0.062 -0.119,0.616 m 0,2.468 c 0,0.678 0.053,0.956 0.119,0.617 0.065,-0.339 0.065,-0.895 0,-1.234 -0.066,-0.339 -0.119,-0.062 -0.119,0.617 m -62.598,9.801 -0.945,1.028 1.028,-0.945 c 0.957,-0.879 1.154,-1.111 0.945,-1.111 -0.046,0 -0.508,0.463 -1.028,1.028 m 43.538,0.536 c 0.339,0.066 0.894,0.066 1.233,0 0.34,-0.065 0.062,-0.118 -0.616,-0.118 -0.679,0 -0.957,0.053 -0.617,0.118 m -119.529,3.021 c 0.492,0.061 1.233,0.06 1.645,-0.002 0.412,-0.063 0.008,-0.113 -0.896,-0.111 -0.905,10e-4 -1.242,0.052 -0.749,0.113 m -20.152,3.288 c 0.416,0.063 1.033,0.062 1.371,-0.003 0.337,-0.066 -0.004,-0.117 -0.758,-0.115 -0.754,0.002 -1.03,0.055 -0.613,0.118 m 75.938,0.274 c 0.415,0.063 1.094,0.063 1.508,0 0.415,-0.063 0.076,-0.114 -0.754,-0.114 -0.829,0 -1.168,0.051 -0.754,0.114 m 103.369,2.957 c 0.002,0.753 0.055,1.029 0.118,0.613 0.063,-0.417 0.061,-1.034 -0.004,-1.371 -0.065,-0.337 -0.116,0.004 -0.114,0.758 m -58.68,4.712 c 0.263,0.069 0.695,0.069 0.959,0 0.264,-0.069 0.048,-0.125 -0.48,-0.125 -0.527,0 -0.743,0.056 -0.479,0.125"
       stroke="none"
       fill="#6c7474"
       fill-rule="evenodd" />
    <path
       id="path4"
       d="m 202.399,106.015 c 0.264,0.069 0.696,0.069 0.959,0 0.264,-0.069 0.048,-0.125 -0.479,-0.125 -0.528,0 -0.744,0.056 -0.48,0.125 m 55.402,11.189 c 0.001,1.055 0.05,1.453 0.11,0.884 0.059,-0.568 0.058,-1.432 -0.002,-1.919 -0.061,-0.486 -0.109,-0.021 -0.108,1.035 m -23.593,0.137 c 0,0.678 0.053,0.956 0.118,0.617 0.066,-0.34 0.066,-0.895 0,-1.234 -0.065,-0.339 -0.118,-0.062 -0.118,0.617 m -67.17,1.37 c 0,0.679 0.054,0.957 0.119,0.617 0.066,-0.339 0.066,-0.894 0,-1.233 -0.065,-0.34 -0.119,-0.062 -0.119,0.616 m 36.602,1.298 c 0.645,0.058 1.632,0.057 2.193,-0.002 0.562,-0.059 0.034,-0.106 -1.172,-0.105 -1.207,0.001 -1.666,0.049 -1.021,0.107 m 85.948,2.267 c 0,0.678 0.054,0.956 0.119,0.616 0.065,-0.339 0.065,-0.894 0,-1.233 -0.065,-0.34 -0.119,-0.062 -0.119,0.617 m -110.186,3.289 c 0,1.584 0.046,2.231 0.101,1.44 0.055,-0.792 0.055,-2.087 0,-2.879 -0.055,-0.792 -0.101,-0.144 -0.101,1.439 m 109.916,1.508 c 0.002,0.754 0.055,1.03 0.118,0.613 0.063,-0.416 0.061,-1.033 -0.004,-1.37 -0.065,-0.338 -0.116,0.003 -0.114,0.757 m -17.004,9.107 c 0.416,0.063 1.033,0.062 1.37,-0.003 0.338,-0.066 -0.003,-0.117 -0.757,-0.115 -0.754,0.002 -1.03,0.055 -0.613,0.118 m -13.147,14.471 c 0.001,0.905 0.052,1.242 0.113,0.749 0.061,-0.493 0.06,-1.233 -0.003,-1.645 -0.062,-0.412 -0.112,-0.009 -0.11,0.896 M 150.72,151.53 c 0.339,0.065 0.894,0.065 1.233,0 0.34,-0.065 0.062,-0.119 -0.616,-0.119 -0.679,0 -0.957,0.054 -0.617,0.119 m 8.362,0.003 c 0.414,0.063 1.093,0.063 1.507,0 0.415,-0.063 0.076,-0.114 -0.753,-0.114 -0.83,0 -1.169,0.051 -0.754,0.114 m 115.198,10.838 -0.805,0.892 0.891,-0.806 c 0.49,-0.443 0.891,-0.844 0.891,-0.891 0,-0.212 -0.226,-0.025 -0.977,0.805 m -164.267,2.948 c 0,0.678 0.053,0.956 0.119,0.617 0.065,-0.34 0.065,-0.895 0,-1.234 -0.066,-0.339 -0.119,-0.062 -0.119,0.617 m 204.543,8.362 c 0.001,1.206 0.049,1.665 0.107,1.02 0.058,-0.644 0.057,-1.631 -0.002,-2.193 -0.059,-0.561 -0.106,-0.034 -0.105,1.173 m -11.517,0.685 c 0,1.131 0.049,1.594 0.108,1.028 0.059,-0.565 0.059,-1.491 0,-2.056 -0.059,-0.566 -0.108,-0.103 -0.108,1.028 m -161.727,-0.48 -0.805,0.891 0.891,-0.805 c 0.49,-0.443 0.891,-0.844 0.891,-0.891 0,-0.212 -0.226,-0.025 -0.977,0.805 m 113.726,7.197 c 0.003,0.603 0.059,0.818 0.125,0.477 0.066,-0.342 0.063,-0.835 -0.005,-1.097 -0.069,-0.262 -0.123,0.017 -0.12,0.62 m 12.917,1.919 c 0.001,1.508 0.047,2.09 0.102,1.293 0.056,-0.797 0.055,-2.03 -0.001,-2.741 -0.056,-0.712 -0.102,-0.06 -0.101,1.448 m -74.603,8.277 c 0.263,0.069 0.695,0.069 0.959,0 0.264,-0.069 0.048,-0.126 -0.48,-0.126 -0.527,0 -0.743,0.057 -0.479,0.126 m 16.306,3.299 c 0.487,0.06 1.35,0.061 1.919,0.002 0.569,-0.06 0.171,-0.109 -0.885,-0.11 -1.055,-0.002 -1.521,0.047 -1.034,0.108 m 70.332,4.659 c 0.417,0.063 1.034,0.062 1.371,-0.004 0.337,-0.065 -0.004,-0.116 -0.758,-0.114 -0.754,0.002 -1.03,0.055 -0.613,0.118 m -101.704,2.545 c 0,0.829 0.052,1.169 0.115,0.754 0.062,-0.415 0.062,-1.093 0,-1.508 -0.063,-0.415 -0.115,-0.075 -0.115,0.754 m 46.924,3.359 -1.084,1.165 1.165,-1.084 c 0.641,-0.596 1.165,-1.12 1.165,-1.165 0,-0.208 -0.238,0 -1.246,1.084 m -90.94,1.495 c 0.339,0.066 0.894,0.066 1.234,0 0.339,-0.065 0.061,-0.119 -0.617,-0.119 -0.679,0 -0.956,0.054 -0.617,0.119 m 142.152,4.382 c 0.264,0.069 0.696,0.069 0.96,0 0.264,-0.069 0.048,-0.125 -0.48,-0.125 -0.528,0 -0.744,0.056 -0.48,0.125 m -77.861,5.222 c 0.716,0.056 1.888,0.056 2.604,0 0.716,-0.057 0.13,-0.103 -1.302,-0.103 -1.433,0 -2.019,0.046 -1.302,0.103 m -77.314,10.954 c 0.264,0.069 0.696,0.069 0.96,0 0.264,-0.069 0.048,-0.126 -0.48,-0.126 -0.528,0 -0.743,0.057 -0.48,0.126 m 3.29,0 c 0.264,0.069 0.696,0.069 0.96,0 0.264,-0.069 0.048,-0.126 -0.48,-0.126 -0.528,0 -0.744,0.057 -0.48,0.126 m 52.776,5.492 c 0.49,0.061 1.292,0.061 1.782,0 0.49,-0.06 0.089,-0.11 -0.891,-0.11 -0.98,0 -1.381,0.05 -0.891,0.11 m 50.176,1.92 c 0.493,0.061 1.233,0.06 1.645,-0.003 0.412,-0.063 0.009,-0.112 -0.895,-0.111 -0.905,0.002 -1.242,0.053 -0.75,0.114 m -112.69,4.386 c 0.486,0.06 1.35,0.061 1.919,0.002 0.568,-0.06 0.17,-0.109 -0.885,-0.11 -1.056,-0.002 -1.521,0.047 -1.034,0.108 m 62.782,6.031 c 0.487,0.061 1.351,0.062 1.919,0.002 0.569,-0.059 0.171,-0.109 -0.885,-0.11 -1.055,-0.001 -1.52,0.048 -1.034,0.108 m 113.372,1.636 c 0.264,0.069 0.695,0.069 0.959,0 0.264,-0.069 0.048,-0.125 -0.48,-0.125 -0.527,0 -0.743,0.056 -0.479,0.125 m -71.282,0.556 c 0.415,0.063 1.093,0.063 1.508,0 0.415,-0.063 0.075,-0.114 -0.754,-0.114 -0.829,0 -1.169,0.051 -0.754,0.114 m -88.54,3.368 c 0,0.829 0.051,1.168 0.114,0.754 0.063,-0.415 0.063,-1.094 0,-1.508 -0.063,-0.415 -0.114,-0.076 -0.114,0.754 m 186.41,1.919 c 0,0.527 0.057,0.743 0.126,0.479 0.069,-0.263 0.069,-0.695 0,-0.959 -0.069,-0.264 -0.126,-0.048 -0.126,0.48 m -120.89,7.813 c 0.002,0.754 0.056,1.03 0.119,0.613 0.063,-0.416 0.061,-1.033 -0.004,-1.37 -0.065,-0.338 -0.117,0.003 -0.115,0.757 m 9.313,0.823 c 0.003,0.603 0.059,0.817 0.124,0.476 0.066,-0.341 0.063,-0.834 -0.005,-1.096 -0.069,-0.262 -0.122,0.017 -0.119,0.62 m 31.03,0.48 -0.805,0.891 0.891,-0.806 c 0.49,-0.443 0.891,-0.844 0.891,-0.891 0,-0.211 -0.226,-0.025 -0.977,0.806 m -150.559,5.963 c 0,0.678 0.054,0.956 0.119,0.616 0.065,-0.339 0.065,-0.894 0,-1.233 -0.065,-0.34 -0.119,-0.062 -0.119,0.617 m 43.595,1.782 c 0.002,0.754 0.056,1.029 0.119,0.613 0.063,-0.417 0.061,-1.034 -0.004,-1.371 -0.065,-0.337 -0.117,0.004 -0.115,0.758 m 108.279,0.137 c 0,0.527 0.056,0.743 0.125,0.479 0.069,-0.263 0.069,-0.695 0,-0.959 -0.069,-0.264 -0.125,-0.048 -0.125,0.48 m -104.176,4.586 c 0.565,0.059 1.491,0.059 2.056,0 0.566,-0.059 0.103,-0.108 -1.028,-0.108 -1.131,0 -1.593,0.049 -1.028,0.108 m 150.52,6.654 c 0,0.679 0.054,0.956 0.119,0.617 0.065,-0.339 0.065,-0.894 0,-1.234 -0.065,-0.339 -0.119,-0.061 -0.119,0.617"
       stroke="none"
       fill="#9d9fa5"
       fill-rule="evenodd" />
  </g>
</svg>
